<svg width="88" height="117" viewBox="0 0 88 117" fill="none" xmlns="http://www.w3.org/2000/svg">
<path fill-rule="evenodd" clip-rule="evenodd" d="M26.7849 7.31951C20.1125 12.249 15.0162 9.17532 9.7098 21.992C6.13717 30.6911 7.24048 41.072 9.86742 49.9451C12.9147 60.0941 15.8043 62.8778 17.433 75.1725C18.5363 83.4077 18.9566 97.7322 9.9725 100.4C16.8551 85.0895 6.76763 73.7227 3.40515 45.4216C2.19676 35.4466 1.61883 26.3995 6.24224 17.4685C9.7098 10.8571 19.3244 5.4057 26.7324 7.3775L26.7849 7.31951ZM23.2648 39.7962C22.1089 51.685 25.524 87.9892 17.5906 94.3106C23.3699 71.5189 13.4401 59.2242 10.025 45.1316C3.45769 18.2804 23.1072 6.68157 28.8339 10.0452C23.7376 13.2929 16.75 15.1487 14.1756 22.456C10.2352 33.7648 17.0652 35.9686 23.2648 39.7962ZM55.4711 69.0252C59.0962 69.4311 60.83 64.7916 65.9788 68.5612C75.6985 75.5785 69.7091 89.4391 65.2958 101.038C57.5726 121.104 28.0984 119.19 24.946 81.2039C24.5257 76.2164 23.7902 56.0345 25.3138 52.3229C31.671 36.4905 54.1576 45.6536 61.9859 54.7586C57.9404 57.1944 54.3152 56.0345 53.8949 62.4138C57.2574 60.2681 56.6795 57.8903 61.4079 57.6003C65.0857 57.3684 67.3448 59.9201 67.4499 63.3998C64.245 65.8935 55.9964 62.4138 55.4711 69.0832V69.0252ZM28.5712 12.7709C20.6904 25.6456 24.8935 29.3572 37.3977 32.5469C55.6287 37.2444 75.1731 39.1582 78.1153 63.2258C79.1135 71.2869 78.7457 89.787 74.7528 96.0504C74.3325 82.1318 79.061 73.3167 71.8106 59.3402C58.3607 33.4748 30.8304 42.8119 20.7955 34.9827C11.391 27.6174 20.165 14.5108 28.6238 12.7709H28.5712ZM29.2017 15.2067C38.6061 25.0077 38.6061 23.1519 51.6357 25.7616C70.0243 29.4732 81.6879 37.9404 84.0521 60.0361C86.0486 78.3042 79.849 82.4798 79.166 87.4673C78.8508 83.3497 80.3744 77.8403 80.2168 72.5628C79.6914 56.3825 77.1696 48.2053 63.9298 39.1003C53.3695 31.851 14.2807 31.503 29.2017 15.2067ZM31.7761 9.69726C39.4993 2.96995 82.7387 6.79756 84.1047 36.7225C81.5828 33.1849 79.5863 28.0234 76.1188 23.6158C67.3448 12.423 44.1227 8.82735 31.7761 9.69726ZM30.8304 7.49349C34.1929 -2.13352 83.4217 -1.72757 84.5775 28.6033C77.7475 17.2945 76.9594 13.9308 63.9298 9.05933C48.3258 3.25992 42.0737 5.75367 30.8304 7.49349ZM85.6808 58.9342C78.7983 42.0579 82.6336 37.8244 64.8755 28.0814C56.8896 23.6738 24.4732 20.9481 32.6692 12.191C36.6622 7.95744 65.7687 16.4246 71.2327 20.9481C79.4813 27.7334 87.7299 47.3934 85.6808 58.9342ZM6.18971 103.126C14.3858 105.155 19.482 97.2683 24.1054 92.1648C27.3103 97.6742 27.5204 102.372 32.6167 107.881C36.2944 111.825 41.8635 116.174 47.4852 116.754C53.5797 117.392 59.3589 113.913 62.7739 109.041C64.6653 106.315 70.6022 96.4564 70.8649 94.0206C71.2852 99.2401 71.0225 110.433 77.4323 110.085C76.3289 105.155 73.0715 106.895 78.1153 94.4266C80.0592 89.5551 82.3184 84.4516 84.1572 79.5801C86.7842 72.4468 87.2045 69.3731 87.6773 61.7759C87.8875 58.1803 88.0451 54.5267 87.6773 50.931C87.3621 47.6834 86.1537 44.7837 86.2062 42.2319C86.4689 27.2115 89.5687 22.05 78.1153 10.5092C70.0243 2.33202 59.4115 -0.161726 48.5359 0.0702507C43.8075 0.186239 35.7165 0.476209 31.7235 3.14394C23.58 8.65337 28.8864 1.86807 16.9076 6.62358C6.24225 10.8571 1.61883 19.9042 0.93583 32.025C-0.220023 51.569 9.39457 76.5644 10.603 86.3654C11.9164 96.7463 7.50317 96.6303 6.24224 103.184L6.18971 103.126Z" fill="#161E3C"/>
<path fill-rule="evenodd" clip-rule="evenodd" d="M35.5037 91.1816C35.3986 91.3556 35.4511 91.7036 35.241 91.8196C35.0308 91.9356 35.0308 92.2835 35.0308 92.4575C33.5597 100.751 42.5964 106.55 47.9553 107.072C54.9955 107.768 62.5611 99.7068 63.9271 92.6895C58.1479 94.7193 64.8203 99.9387 49.3213 100.229L40.3372 99.2428C36.6595 97.8509 37.5527 94.2553 35.5037 91.1816Z" fill="#161E3C"/>
<path fill-rule="evenodd" clip-rule="evenodd" d="M31.8325 62.5244L31.9376 64.9602C29.3106 64.6122 30.0462 63.8583 26.8413 65.9461L30.4139 69.3677C33.8815 68.4978 32.4104 66.584 37.6643 66.932C41.0268 67.1639 41.9199 68.9618 44.757 69.0198C43.9164 62.2924 35.3001 65.4241 31.8325 62.5244Z" fill="#161E3C"/>
<path fill-rule="evenodd" clip-rule="evenodd" d="M46.8562 89.1502C46.0156 87.3524 47.4342 84.2787 47.4867 81.785C47.6969 77.8994 47.4342 76.5655 47.0139 76.0436C46.2783 75.1157 45.9106 75.4636 45.7004 76.3335C44.8598 79.4652 42.5481 89.8461 46.8562 91.586C49.5883 92.6299 52.8457 91.644 53.3185 87.3524C51.1119 90.6581 47.3816 90.6001 46.8562 89.0342V89.1502Z" fill="#161E3C"/>
<path fill-rule="evenodd" clip-rule="evenodd" d="M27.1494 61.1443C30.5644 59.9264 32.5609 56.9108 36.8165 56.7948C43.489 56.6208 42.3857 60.3904 46.6413 61.3763C43.0687 50.7634 27.885 54.881 27.1494 61.1443Z" fill="#161E3C"/>
<path fill-rule="evenodd" clip-rule="evenodd" d="M60.3085 69.556C60.0984 70.7159 61.3593 71.7018 60.4661 72.3977L58.7849 72.1658C58.7324 72.2238 57.1037 72.1078 56.946 72.2238C59.9408 73.9056 64.1964 74.0796 67.0335 72.5137C65.6675 71.8758 63.7235 72.7457 63.5659 72.3977C63.1456 71.4698 63.9337 70.8899 63.9862 70.136C64.1438 68.3962 60.7814 66.9463 60.3085 69.556Z" fill="#161E3C"/>
<path fill-rule="evenodd" clip-rule="evenodd" d="M38.8743 71.508C37.9811 71.392 39.82 69.3042 38.2964 68.3183C37.4557 67.7963 36.9829 67.7383 35.9846 68.3183C34.1458 69.3042 36.2999 71.218 34.9864 71.334C34.461 71.392 32.6747 71.044 32.2544 71.276C35.6169 73.1318 39.6624 73.7117 42.7096 71.16L38.8743 71.45V71.508Z" fill="#161E3C"/>
<path fill-rule="evenodd" clip-rule="evenodd" d="M64.778 81.4819C63.0967 81.076 62.151 83.8017 63.9899 84.4976C66.0914 85.1356 66.4592 81.9459 64.778 81.4819Z" fill="#161E3C"/>
</svg>
