<svg width="30" height="30" viewBox="0 0 30 30" fill="none" xmlns="http://www.w3.org/2000/svg">
<path d="M13.2422 30C10.3344 30 7.96875 27.6343 7.96875 24.7266V7.03125C7.96875 3.15422 11.123 0 15 0C18.877 0 22.0312 3.15422 22.0312 7.03125V24.7266H20.2734V7.03125C20.2734 4.12348 17.9078 1.75781 15 1.75781C12.0922 1.75781 9.72656 4.12348 9.72656 7.03125V24.7266C9.72656 26.6651 11.3037 28.2422 13.2422 28.2422C15.1807 28.2422 16.7578 26.6651 16.7578 24.7266V10.5469C16.7578 9.57762 15.9693 8.78906 15 8.78906C14.0307 8.78906 13.2422 9.57762 13.2422 10.5469V24.7266H11.4844V10.5469C11.4844 8.60836 13.0615 7.03125 15 7.03125C16.9385 7.03125 18.5156 8.60836 18.5156 10.5469V24.7266C18.5156 27.6343 16.15 30 13.2422 30Z" fill="#161E3C"/>
</svg>
