<svg width="89" height="118" viewBox="0 0 89 118" fill="none" xmlns="http://www.w3.org/2000/svg">
<path fill-rule="evenodd" clip-rule="evenodd" d="M29.3985 105.063L30.8807 95.5663C33.9797 97.8664 37.3482 99.2761 40.3798 100.834C37.7524 102.318 32.4976 105.36 29.4659 104.989L29.3985 105.063ZM9.25494 57.0588C10.1308 57.0588 10.8045 57.2814 11.3434 58.0975C9.7939 65.4429 0.833709 60.3234 3.59587 54.6104C4.80853 52.1619 6.56015 50.9748 8.85072 52.0877C9.72653 52.5329 10.6697 53.2006 11.1413 54.6104C9.92864 54.9071 9.45705 54.9071 9.1202 54.9813C8.17703 55.2781 5.48223 56.9846 9.25494 57.0588ZM56.2118 100.241L65.3067 95.5663C65.913 97.718 67.3278 103.505 67.3951 105.212C63.8245 105.36 59.5129 101.799 56.2118 100.166V100.241ZM29.4659 52.3103C31.7565 50.7522 33.306 51.9393 34.1818 54.3878C34.9902 56.5394 34.7208 58.7653 31.487 59.5815C29.668 60.1008 28.5901 58.8395 27.9838 57.4298C26.8385 54.6845 27.0406 53.9426 29.3985 52.3103H29.4659ZM39.3693 57.2814L50.8222 57.7266C52.6411 58.3943 54.6622 60.9912 56.4812 61.9557C61.7361 64.7751 61.7361 58.9137 66.1151 58.8395C67.9341 58.8395 74.1321 60.546 76.0859 61.0654C77.2312 66.5558 75.0079 81.6917 69.2141 88.9629C63.2856 96.4567 53.1801 99.4245 44.4894 99.2019C29.5333 98.8309 9.1202 74.1238 13.2971 55.2781C17.5414 54.6104 22.3921 53.8684 25.289 57.4298C29.3312 62.4009 32.026 64.2558 35.7987 58.4685C37.0113 56.6136 37.1461 57.2814 39.3693 57.3556V57.2814ZM60.2539 60.175C59.1087 61.0654 57.8286 60.546 56.7507 59.5815C54.6622 57.7266 54.7296 56.0201 56.8181 54.1652C58.435 52.7555 60.1192 53.72 61.1298 55.5749C62.1403 57.4298 62.0729 58.8395 60.3213 60.175H60.2539ZM14.0382 52.4587C11.8824 37.9164 34.3839 16.919 46.0389 17.8835C52.978 18.4771 62.6793 28.3451 66.7888 35.1711C73.6606 46.4488 72.5826 47.4134 75.9511 57.8008L65.9804 56.4652C63.353 55.9459 62.6793 54.5362 61.1971 53.1264C58.5697 50.6038 57.8286 50.6038 55.2686 52.6071C50.4853 56.2427 54.797 55.6491 45.9715 55.3523C41.323 55.2039 38.763 57.133 36.0008 52.6813C33.1712 48.1553 30.7459 49.2683 27.7817 51.1232C26.2995 52.0135 25.4911 53.2748 23.7395 53.1264C20.5057 52.6071 18.0804 52.4587 14.1056 52.4587H14.0382ZM78.3091 64.9977C78.9154 62.9944 79.6565 62.1041 80.8018 61.5847C82.8902 60.6944 83.6313 61.2138 84.7766 63.3654C87.943 69.1527 80.1281 74.6432 77.9048 67.372L80.9365 66.7042C83.4292 65.8881 83.1597 65.2203 80.5323 64.8493C79.9933 64.7751 79.387 64.7751 78.2417 64.9235L78.3091 64.9977ZM53.9885 13.2834C58.7044 12.3931 64.633 10.6866 69.551 10.6124C70.2921 14.9157 68.4057 16.9932 68.5404 21.8159C71.2352 24.5611 71.9763 23.8934 75.2101 25.0063C74.6711 28.1225 73.3911 29.1613 72.3132 31.7581C76.6248 34.8001 78.107 33.0194 81.8797 34.9485L78.6459 39.697L84.5071 43.852C77.6354 52.6813 77.1638 50.678 83.2944 54.6104L79.0501 58.3943C76.4227 56.0943 76.6248 40.2164 61.6687 25.2289C46.1736 9.64784 35.6639 13.8028 21.0447 31.3871C11.815 42.5165 14.5772 41.5519 11.4108 51.7167L4.53905 42.5165C7.50333 39.5487 12.2866 44.7423 9.86127 32.1291C9.38968 29.6806 9.38968 27.3064 9.05283 25.4515L15.0488 27.7516C19.7646 23.003 18.1478 19.59 19.4952 15.1383L24.4132 17.1416C24.6826 16.9932 24.8174 17.29 25.0195 17.29C29.5333 12.2447 28.7922 10.3898 31.4196 5.93806C33.306 7.57037 33.2386 7.86715 34.586 9.49945C39.7735 15.8061 38.6956 12.3189 48.8011 3.638L53.9212 13.4318L53.9885 13.2834ZM61.1298 104.989L68.4731 108.105C70.9658 105.063 68.6078 97.8664 67.3951 94.0824C74.2669 86.2177 75.749 82.2111 77.3659 74.4206C77.9722 71.3786 77.568 72.1947 80.3975 72.7141C82.8902 73.2334 85.1808 73.0108 87.2693 68.7075C89.4925 64.1074 86.2587 61.2138 83.1597 58.2459L86.6629 53.6458L81.8797 50.5296C88.4819 42.8875 88.5493 43.9262 81.8797 38.8809L85.4503 34.0582C83.3618 31.1646 79.1175 32.4259 75.4122 30.4968L78.5785 23.745C76.9617 21.7417 74.3343 22.9288 70.9658 21.074C70.3594 16.8448 72.5826 12.5415 72.0437 8.83169C69.012 7.27358 58.8392 9.94462 55.0665 10.464C52.0348 6.9768 52.2369 3.11863 49.5421 -0.0717773C45.3652 2.45087 42.5357 8.08974 37.9545 9.79623L31.2849 2.0057C28.4554 5.71548 29.3985 8.98008 24.2111 14.5447L17.6762 11.0576C15.7225 16.1029 19.3604 17.29 14.7793 25.0063C12.2192 23.9676 8.78336 22.1127 6.29067 22.3353C6.29067 27.158 9.65916 33.3904 7.90755 38.6583C5.34749 39.4003 3.12428 39.2519 1.17056 39.7712C1.50741 43.1842 4.67379 46.1521 7.23385 49.4167C-0.244209 50.3812 -2.46742 63.1428 7.90755 63.6622C10.535 63.8106 10.4676 62.6235 11.3434 65.4429C12.5561 69.4495 12.6234 73.456 15.5877 79.3175C19.4278 86.737 22.5268 88.4435 27.9838 94.1566C28.388 98.7567 26.03 102.392 27.2427 107.512C35.7313 109.589 44.8262 93.7856 61.0624 104.915L61.1298 104.989Z" fill="#161E3C"/>
<path fill-rule="evenodd" clip-rule="evenodd" d="M41.1846 106.68C42.8689 106.309 44.7552 108.09 46.3721 109.277C45.0921 111.058 43.4078 112.393 41.5215 113.58C40.5109 111.058 40.6457 109.351 41.252 106.754L41.1846 106.68ZM58.9703 107.496C60.5871 110.835 60.0482 111.355 58.9703 114.768C56.9492 113.358 54.9281 111.726 53.3786 109.797C55.1975 108.906 57.4208 107.719 58.9703 107.422V107.496ZM59.7113 104.751C55.2649 106.087 53.5807 107.867 49.7406 107.496C46.2374 107.125 45.1594 104.158 39.8372 104.232C38.6919 106.532 38.9614 107.719 38.8267 110.093C38.6919 113.135 38.4224 113.58 40.1741 116.177C50.6164 108.609 44.2836 112.171 50.0101 112.171C54.7933 112.171 48.8648 108.98 60.5871 117.661C62.9451 113.506 61.7998 108.906 59.7113 104.825V104.751Z" fill="#161E3C"/>
<path fill-rule="evenodd" clip-rule="evenodd" d="M56.3483 70.104C55.6746 71.8105 56.9547 72.404 57.3589 76.559C54.1925 76.93 53.4514 76.93 50.7566 75.3719C49.9482 76.8558 48.8703 77.1526 47.6576 78.2655C45.7713 77.8945 44.6934 77.301 43.0765 76.0396C41.2575 77.0784 39.3038 79.8236 34.1837 79.0075C37.1479 73.517 37.35 73.517 36.3395 71.7363C34.5879 72.6266 33.1057 76.0396 32.432 78.4139C32.0278 79.8978 32.0278 80.1946 32.2299 81.6043C35.8005 82.1237 38.4953 80.4172 43.0765 78.7849C44.4239 79.5268 45.6365 79.8978 47.5229 80.343C50.2177 80.343 50.6219 78.0429 56.1462 79.8236C59.6495 80.9365 58.1 80.7881 60.1884 80.8623L59.7842 77.5977C59.38 75.7428 58.4368 70.104 56.281 70.0298L56.3483 70.104Z" fill="#161E3C"/>
<path fill-rule="evenodd" clip-rule="evenodd" d="M37.6804 61.5884C37.5457 61.811 35.1878 63.4433 38.5563 68.1176C44.2153 75.9823 55.7356 71.6048 54.0513 64.2594C50.4134 65.4466 52.3671 71.0854 45.5627 69.8983C39.2973 68.7853 40.4426 65.0756 37.7478 61.5884H37.6804Z" fill="#161E3C"/>
<path fill-rule="evenodd" clip-rule="evenodd" d="M32.2942 35.2558C35.1237 34.959 38.627 31.917 41.726 30.2105C45.0271 28.3556 48.9346 27.7621 51.2251 25.7588C48.2609 26.1298 32.9679 29.6912 32.2942 35.2558Z" fill="#161E3C"/>
<path fill-rule="evenodd" clip-rule="evenodd" d="M22.1866 50.4612C24.6119 49.5708 27.5088 46.7514 29.4625 44.0804C28.8562 43.7836 27.5762 42.1513 23.9382 44.8965C21.176 46.974 21.1087 48.0127 22.1866 50.387V50.4612Z" fill="#161E3C"/>
<path fill-rule="evenodd" clip-rule="evenodd" d="M44.5541 36.3445C49.27 34.4154 51.628 34.7122 54.6596 32.6347C52.1669 31.225 47.5858 32.338 44.4868 33.9703C40.9162 35.8251 41.1856 37.7542 44.5541 36.4187V36.3445Z" fill="#161E3C"/>
<path fill-rule="evenodd" clip-rule="evenodd" d="M60.7857 44.9609C59.9773 47.1868 59.7752 47.4836 62.5373 49.5611C65.03 51.4901 64.8953 51.7869 66.9837 50.5998C65.9058 48.3739 62.7394 45.1093 60.8531 44.9609H60.7857Z" fill="#161E3C"/>
<path fill-rule="evenodd" clip-rule="evenodd" d="M40.5188 86.7273C43.4831 87.2467 42.4725 86.2079 45.0999 86.3563C47.9969 86.5047 47.2558 87.9144 49.8832 86.5047C48.8053 83.3885 40.9904 82.7208 40.5188 86.7273Z" fill="#161E3C"/>
<path fill-rule="evenodd" clip-rule="evenodd" d="M31.3495 54.4524C28.7221 53.7104 28.4526 58.9041 31.4169 57.4202C33.1011 56.6041 33.7075 55.1201 31.3495 54.4524Z" fill="#161E3C"/>
<path fill-rule="evenodd" clip-rule="evenodd" d="M58.3748 55.5802C57.499 55.2834 55.2084 56.5447 57.4317 58.6222C58.7791 59.8835 61.8781 56.6931 58.3748 55.5802Z" fill="#161E3C"/>
</svg>
