<svg width="88" height="103" viewBox="0 0 88 103" fill="none" xmlns="http://www.w3.org/2000/svg">
<path fill-rule="evenodd" clip-rule="evenodd" d="M13.1803 36.4975C12.2986 25.0804 13.1215 18.4874 24.3481 23.215C33.1061 26.8814 39.6305 23.2472 48.2415 23.8583C58.7922 24.598 59.8502 28.3608 60.4086 39.9708C61.3784 59.6211 53.3552 68.0151 43.3335 81.3939C37.3969 89.3055 34.6637 85.607 28.8741 77.6955C20.0279 65.603 14.3852 52.3849 13.1509 36.5296L13.1803 36.4975ZM30.5198 13.5025C24.6126 23.3759 12.4162 13.8884 11.5051 29.8723C10.9761 39.3276 13.7093 52.1276 16.5894 61.1005C20.41 72.9357 22.8787 79.7859 17.4711 92.2643C15.8547 95.9628 11.9753 102.138 7.71391 98.1176C4.5105 95.1266 9.50665 89.402 9.74176 84.2884C10.1826 75.0583 4.62806 64.0271 3.65822 53.8965C2.42388 41.0965 1.10137 33.41 4.98073 20.7065C8.88947 8.00299 15.0318 6.71656 25.8764 5.81605C34.0171 5.14068 49.8873 2.34269 56.4704 2.40701C79.5115 2.63214 89.5919 23.6653 83.7729 46.596C81.363 56.0512 74.192 64.1236 75.1325 75.4764C75.5733 80.8472 92.5014 90.2703 74.3684 97.2171C47.9182 107.348 61.7017 57.402 62.8772 46.2743C67.9028 -0.969874 36.6622 33.0563 23.9661 20.6743C30.1672 14.9497 35.8981 19.2914 43.0984 16.8794C49.7403 14.6603 56.5292 12.6341 62.7891 17.5547C75.6615 27.6211 61.9956 51.999 66.9329 61.3578C67.8146 49.3618 72.2524 29.0362 66.1982 19.7738C57.2345 6.04118 44.0094 18.6482 30.9019 15.4C34.3404 13.2452 43.8919 8.3246 47.5949 7.16681C51.9445 5.81606 65.7868 8.06731 69.1665 11.1547C80.3931 21.4462 71.2531 43.2834 74.0745 56.9517C75.8966 46.0814 78.3359 20.3206 71.3413 11.4764C68.2261 7.55274 57.2933 5.46229 52.6204 5.205C46.6838 4.88339 41.0705 8.93565 35.6923 11.4764C26.0527 16.011 9.59481 -0.423141 6.06812 27.5568C4.95134 36.4653 5.42156 42.2542 8.0078 50.6804C8.86009 53.414 12.9158 70.4593 13.1803 70.3306C15.7077 67.1467 5.83301 45.406 6.74407 31.5125C8.03719 11.605 14.1207 10.5115 30.4611 13.4382L30.5198 13.5025ZM22.0558 72.807C25.5531 76.1196 34.7225 93.8723 41.0411 88.2442C46.1548 83.6774 52.0914 70.9738 57.3227 66.8573C49.4464 119.601 89.298 99.1467 84.5076 82.5517C82.7443 76.409 73.0752 81.9085 79.0412 64.2844C84.3019 48.6864 91.6198 37.8161 85.7126 19.806C75.1031 -12.387 49.564 5.14068 31.5779 1.69947C25.0535 0.445201 17.618 2.21405 12.4749 6.90952C-0.338699 18.5517 0.572363 33.0241 1.07198 49.6834C1.48342 63.4161 7.65513 72.6462 7.56697 82.8733C7.50819 90.1417 5.50973 89.3698 4.56928 94.0975C2.18876 105.836 23.3783 110.049 22.0852 72.807H22.0558Z" fill="#161E3C"/>
<path fill-rule="evenodd" clip-rule="evenodd" d="M47.5056 47.854C49.4452 47.1787 50.4151 48.5937 52.4135 48.4651C52.2666 48.3043 51.7964 47.5646 51.4731 47.1465L54.0593 43.3194C51.3261 43.5445 52.296 44.6058 50.0624 45.249C51.2967 43.7374 51.238 42.7405 51.8257 41.4862L48.8575 43.8339C48.975 42.7405 48.2991 41.3254 48.0639 40.9395C47.5643 42.6118 46.9472 42.9656 45.1838 43.448C42.3331 44.2199 39.0415 44.3807 38.9533 47.0822C38.9239 48.5616 38.9239 48.3686 42.6563 49.655C45.3308 50.3626 46.5063 50.3947 47.5056 47.8862V47.854Z" fill="#161E3C"/>
<path fill-rule="evenodd" clip-rule="evenodd" d="M20.4424 43.3767C18.4439 42.8299 18.7378 42.444 17.1802 41.6078L18.4733 44.1485C18.7085 45.1777 16.7688 42.637 15.2993 43.1837C15.3287 44.3093 16.5924 44.5666 16.9157 45.2098C17.1214 45.6279 16.7394 46.1104 15.6814 46.9465C22.5584 52.7033 23.6752 49.0048 24.8802 48.9083C25.6737 48.844 25.4973 49.5516 27.9366 49.0048C27.8485 46.8179 26.8198 44.9526 24.9095 43.9556C20.56 41.7043 23.3519 44.9526 20.5306 39.9033C20.2661 41.2862 20.2367 40.1606 20.4718 43.4088L20.4424 43.3767Z" fill="#161E3C"/>
<path fill-rule="evenodd" clip-rule="evenodd" d="M26.7295 68.1139C27.6993 71.6838 34.6645 74.6426 37.9561 74.128C41.1008 73.6456 46.9786 68.0818 45.7442 65.0908C41.6885 66.8918 46.2438 68.9501 36.8099 69.4647C34.6352 69.5933 33.6653 70.5903 31.6081 70.0436C29.0512 69.3682 29.9329 68.2426 26.7589 68.1139H26.7295Z" fill="#161E3C"/>
<path fill-rule="evenodd" clip-rule="evenodd" d="M38.6326 40.9325C42.1886 41.1898 42.1005 38.1024 46.4207 38.2953C50.2119 38.4561 51.6519 41.2863 54.5321 41.0612C54.5027 33.8893 39.4261 33.1818 38.6326 40.9325Z" fill="#161E3C"/>
<path fill-rule="evenodd" clip-rule="evenodd" d="M14.5034 40.614C17.6481 40.8069 18.2652 38.427 22.4091 38.9416C26.6117 39.4883 25.9652 44.3125 28.7865 40.421C27.4052 36.2723 15.6496 32.6381 14.5034 40.614Z" fill="#161E3C"/>
<path fill-rule="evenodd" clip-rule="evenodd" d="M28.9039 64.3744C31.4901 65.0819 36.0748 65.7894 37.3092 62.3804C35.105 61.898 34.8699 64.31 30.726 63.2166C30.726 63.2166 38.5729 44.5633 31.784 42.0869C32.5481 47.3291 33.6355 47.5864 32.6657 53.9542C31.9016 58.9713 29.4035 60.4186 28.8745 64.3744H28.9039Z" fill="#161E3C"/>
<path fill-rule="evenodd" clip-rule="evenodd" d="M34.2567 79.0724C35.5498 79.5549 35.0796 79.4584 37.5483 79.0403C39.4292 78.6865 39.0177 78.9438 39.8994 77.9468C38.0773 76.5639 34.9326 77.0142 34.2273 79.0724H34.2567Z" fill="#161E3C"/>
<path fill-rule="evenodd" clip-rule="evenodd" d="M39.9256 63.1193C41.7478 61.7042 40.8367 60.0962 39.6023 58.1665C38.9264 59.1635 38.8676 58.9384 39.1027 60.4178C39.3672 62.1223 39.3966 61.9293 39.9256 63.1514V63.1193Z" fill="#161E3C"/>
</svg>
