<svg width="109" height="115" viewBox="0 0 109 115" fill="none" xmlns="http://www.w3.org/2000/svg">
<path fill-rule="evenodd" clip-rule="evenodd" d="M51.5739 8.76387C47.977 15.2135 42.5079 5.09568 46.5469 2.73422C51.5305 -0.168602 54.2001 4.04095 51.5739 8.76387ZM48.4277 16.2776C50.2651 10.584 54.2001 9.72525 58.5163 12.5534L48.4277 16.2776ZM66.0655 15.5309C64.4967 17.7803 46.6336 22.5126 44.5968 22.2326C47.8556 15.8016 60.0071 14.4855 66.0655 15.5309ZM70.7025 22.9419C55.4308 22.3726 55.1968 24.034 42.1526 30.269C43.47 23.0726 49.8231 22.5219 55.6302 21.3459C61.8792 20.0858 67.3049 16.3616 70.6938 22.9419H70.7025ZM70.0264 25.2661C64.9734 33.0131 65.4848 29.1676 57.2336 31.7811C54.4341 32.6678 49.9271 35.1506 46.1395 36.1306C39.1104 37.9414 39.2317 34.1145 45.6975 30.3157C52.4579 26.3488 61.7319 22.1019 70.0264 25.2661ZM27.2796 62.9281C24.1247 62.0507 23.6047 60.4359 22.504 58.7652C18.9764 62.0787 18.3783 64.3468 13.152 66.1669L13.8367 59.5679L3.92138 59.6986L11.6786 50.7474L2.17926 43.8031L15.1888 40.2562L12.3893 32.1918L24.3241 31.4824L26.6989 24.3887C30.6858 24.7527 32.5319 28.2436 35.4268 31.5197C37.2296 33.5638 38.2003 35.0386 38.3217 36.728C38.183 38.9961 38.0877 41.1896 38.027 43.4577L28.9784 42.5523L29.9231 51.1581L26.8202 52.5488L27.2883 62.9467L27.2796 62.9281ZM31.7432 45.3338L39.5351 46.2205C40.6532 42.6643 41.0085 41.3016 42.7246 39.8735C53.4547 33.3025 63.9767 33.4052 71.2572 33.4145L71.3785 42.8603L75.7642 39.1548L78.0956 47.6579L81.9526 46.6032L83.452 55.2837C78.3557 55.797 73.5714 55.0876 68.7177 53.9396C59.4784 51.7555 63.3613 58.1771 57.3376 59.7546C51.4612 61.2946 51.4439 53.5476 43.496 57.3184C38.7377 59.5772 35.3575 61.864 29.6804 64.1415C28.0337 54.6676 30.2871 54.4343 32.1073 51.8208C32.3066 50.0567 31.4139 47.1726 31.7519 45.3525L31.7432 45.3338ZM26.1875 64.3655C25.3035 65.5042 23.908 66.5869 22.3826 66.8856C22.66 62.5174 22.2613 62.172 26.1875 64.3655ZM50.2131 65.9616C48.6617 67.0723 46.0182 67.3896 43.7994 66.2882C40.0725 64.9255 42.4559 59.9972 45.1861 58.6158C46.7722 57.8131 48.5144 58.1398 50.3171 59.4372C53.0126 61.388 53.2813 64.1508 50.2131 65.9616ZM77.5149 34.8426L72.2366 38.7815L74.2474 31.8651L67.8596 31.0064L75.9375 20.7112C77.0556 21.6912 77.3069 23.054 78.6157 25.1261L92.6306 18.4524L91.0272 25.6488C95.5775 25.5368 103.655 25.1541 106.438 29.6623L98.1343 33.8159L103.387 43.7564L98.169 42.6083C98.2383 45.4178 98.8797 46.0432 98.1603 48.33L91.3305 45.0538C87.777 48.0406 90.4811 50.3461 84.4227 54.3876L83.2613 40.3869L78.529 45.5858L77.4976 34.8612L77.5149 34.8426ZM64.1501 62.508C62.4079 61.668 61.6972 58.1118 62.9626 56.7117C64.8781 53.9396 70.6245 55.4237 70.0178 58.9519C69.8444 59.9599 69.2897 61.584 68.293 62.368C67.3656 63.0961 65.7535 63.1707 64.1501 62.508ZM16.4802 75.7341C15.7522 76.4061 18.8377 78.3662 17.7023 78.3569C13.8107 78.4315 13.6894 78.4595 12.9786 74.082C12.7793 71.9445 19.7304 72.0005 19.2277 73.4566C18.673 75.398 19.0544 75.3887 16.4802 75.7247V75.7341ZM97.8656 55.0223C94.8928 56.3384 90.7585 56.413 88.0196 55.2183C89.1464 52.3902 90.1691 49.8234 92.4053 47.6579L97.8656 55.013V55.0223ZM105.892 55.6197C106.62 55.937 108.57 57.7011 106.533 59.5492C104.921 61.3973 104.011 61.6213 103.343 61.4066C101.567 60.8186 101.445 58.8398 102.113 57.2344C102.641 55.9464 103.343 55.2183 105.892 55.629V55.6197ZM99.5384 57.7385C103.855 69.5364 98.5417 85.8426 91.0792 94.9244C58.265 134.845 16.0382 101.393 21.0825 72.9899C22.2353 66.4749 32.0899 65.3829 38.547 61.864C42.2826 68.9577 45.1515 70.6005 52.5533 66.5029C53.212 70.8245 50.4991 81.521 60.1891 79.2156C65.2075 78.0209 64.2194 77.9929 63.786 74.4927C60.3971 73.774 62.3213 79.6729 56.6096 77.0688C54.3734 76.0421 54.7721 76.2008 54.7634 73.7273L54.7374 62.368C65.4675 58.9332 57.0429 64.0575 66.2995 65.1402C71.3872 65.0842 71.1012 60.912 72.9473 57.1411L99.5471 57.7385H99.5384ZM105.007 62.564C108.067 60.7533 110.216 57.2531 107.304 54.7236C102.095 51.4661 102.477 60.1092 96.7909 50.7568C95.8115 48.7033 98.2383 50.8501 100.7 50.4581C99.1744 42.1136 103.3 49.282 105.805 44.4844L101.749 34.9079C104.418 31.9864 106.091 32.9851 108.864 29.4476C106.134 24.51 98.247 23.6513 93.2633 24.0713L95.1355 16.2496L79.7251 22.0272L77.4976 16.5016L72.5053 22.0552C67.721 14.8309 61.7406 9.45457 53.5413 9.3519C53.2553 5.58103 54.3301 1.56749 50.7418 0.307423C47.4569 -0.849971 44.5534 1.49282 43.47 4.46098C42.8546 9.04388 45.8622 10.0986 48.2543 13.1881C42.638 19.4604 42.1093 27.2822 38.573 32.2944C34.2481 29.1583 31.2405 22.9606 25.2515 21.7939L21.9753 29.2236L10.3438 30.6237L12.762 38.9495L-0.0222168 42.907C2.09259 46.8925 5.42081 49.478 8.97438 50.5607C6.91158 54.9663 3.27134 53.9583 0.801171 62.1347L12.1553 61.304L11.6612 68.8924L21.0912 64.2535C20.7445 75.7247 12.0339 68.4537 11.3579 74.1847C11.2279 79.925 14.1227 79.7756 17.0783 80.373C19.6611 80.905 19.0284 81.269 19.7304 83.9012C33.6587 135.741 101.367 117.615 102.797 66.8203C102.901 63.1894 102.173 64.2535 105.016 62.5827L105.007 62.564Z" fill="#161E3C"/>
<path fill-rule="evenodd" clip-rule="evenodd" d="M78.5005 79.7547C80.2253 77.8786 79.3239 80.044 82.7214 80.716L80.8406 77.4399C79.3759 74.8917 79.6706 74.6771 77.3737 77.1972C73.7855 81.1361 73.4041 85.1776 64.1649 87.8844C55.4629 90.4326 52.8194 86.9977 47.3851 84.8603C45.2529 84.0296 44.8282 83.5722 44.0482 86.2417C43.7448 87.2871 43.9962 87.9404 44.3775 90.1992C47.2551 87.5764 45.0362 85.4016 48.0525 87.0164C57.5258 95.9209 71.2633 88.2764 78.4918 79.7453L78.5005 79.7547Z" fill="#161E3C"/>
<path fill-rule="evenodd" clip-rule="evenodd" d="M84.4706 70.6194C83.8292 66.8486 85.8747 62.7884 89.3069 62.611C92.9385 62.415 95.2093 66.9699 94.0393 70.8434C92.4098 76.2477 85.7014 77.8065 84.4706 70.6288V70.6194ZM92.4012 76.2291C100.401 69.7141 93.4932 57.3001 85.8054 61.9203C79.0796 65.9712 84.0806 83.0054 92.4012 76.2291Z" fill="#161E3C"/>
<path fill-rule="evenodd" clip-rule="evenodd" d="M35.4673 78.3348C36.8714 80.239 37.2527 82.3204 36.3253 84.4578C33.3352 91.3835 26.4187 86.3059 26.6614 80.155C26.8174 76.1974 32.0524 73.7146 35.4673 78.3255V78.3348ZM25.448 77.9988C23.2291 82.9178 27.0687 89.6288 32.1564 89.5821C38.1021 89.5261 40.0783 83.4498 37.1054 78.3162C33.9245 72.8372 28.1868 71.9225 25.448 77.9988Z" fill="#161E3C"/>
<path fill-rule="evenodd" clip-rule="evenodd" d="M63.3754 48.0027C66.7643 46.3133 69.0178 46.2666 71.6526 49.1788C68.8618 49.5801 65.6029 49.8041 63.3754 48.0027ZM68.1597 51.0269C72.9961 51.4842 73.0914 52.1656 74.9202 47.564C70.8639 45.9773 65.8803 43.2145 61.512 46.9573C61.6766 51.3722 64.2248 50.6535 68.1511 51.0269H68.1597Z" fill="#161E3C"/>
<path fill-rule="evenodd" clip-rule="evenodd" d="M41.9685 51.7047C40.8071 55.3169 33.0673 57.2303 36.2915 53.8235C38.9263 51.6674 38.6056 51.2567 41.9685 51.7047ZM43.2946 49.1846C39.6284 49.5486 31.8105 52.3861 33.3966 57.277C36.4475 58.1264 38.3283 57.2957 41.2665 55.3916C44.8634 53.0674 44.3607 52.9274 43.2946 49.1846Z" fill="#161E3C"/>
<path fill-rule="evenodd" clip-rule="evenodd" d="M48.0593 61.0605C45.9272 59.3057 44.2978 62.1059 45.0952 63.3846C46.2739 65.0927 47.0106 64.6073 47.7387 64.2806C48.7267 63.8419 49.3681 62.9272 48.0593 61.0605Z" fill="#161E3C"/>
<path fill-rule="evenodd" clip-rule="evenodd" d="M65.3429 97.5716C62.3874 96.7689 61.72 97.6276 59.0158 99.0837C57.0744 100.558 57.005 100.969 62.3181 99.8771C66.0883 99.1024 66.825 98.1223 65.3429 97.5716Z" fill="#161E3C"/>
<path fill-rule="evenodd" clip-rule="evenodd" d="M65.0743 58.2513C66.8511 56.7953 68.2032 59.1194 67.5445 60.1834C66.5651 61.6022 65.9497 61.2008 65.343 60.9301C64.5196 60.5661 63.9822 59.8101 65.0743 58.2513Z" fill="#161E3C"/>
</svg>
