<svg width="61" height="60" viewBox="0 0 61 60" fill="none" xmlns="http://www.w3.org/2000/svg">
<path d="M33.3166 54.255C26.2404 46.8252 22.296 36.6698 22.287 36.6442V36.6429V36.6435V36.6429V36.6442C22.278 36.6698 18.3432 46.795 11.2844 54.2268L10.6842 53.2479L10.4204 53.4674L11.199 54.3186C11.1952 54.3224 11.192 54.3263 11.1881 54.3301C11.1881 54.3301 11.1952 54.3282 11.2054 54.3263L11.2093 54.3301L11.244 54.3173C11.7299 54.2107 15.406 53.4629 19.378 54.2974C19.378 54.2974 19.9762 53.0277 19.7618 50.984C21.147 49.8857 22.0591 47.9286 22.2877 46.3354C22.5168 47.9337 23.642 49.9788 24.8186 50.9968C24.8437 52.9353 25.1973 54.298 25.1973 54.298C29.0589 53.4867 32.6426 54.1716 33.2851 54.3077L33.2774 54.3199L33.3763 54.3276C33.3834 54.3289 33.3872 54.3301 33.3872 54.3301C33.3866 54.3295 33.3859 54.3289 33.3853 54.3282L33.409 54.3301L34.1979 53.4674L33.9341 53.2479L33.3166 54.255Z" fill="#161E3C"/>
<path d="M30.5725 34.472C30.862 34.3302 31.1734 34.2249 31.4949 34.1434C31.3454 34.0195 31.1958 33.8963 31.0572 33.7602C31.0309 33.7345 31.0065 33.7056 30.9808 33.678C30.785 33.8346 30.5636 33.9592 30.3235 34.0323C30.2824 34.0445 30.2381 34.058 30.2118 34.0907C30.1386 34.1813 30.2529 34.3039 30.3549 34.361C30.4256 34.4001 30.4994 34.4348 30.5725 34.472Z" fill="#161E3C"/>
<path d="M38.4966 59.066C38.826 59.066 39.093 58.799 39.093 58.4697C39.093 58.1403 38.826 57.8734 38.4966 57.8734C38.1673 57.8734 37.9003 58.1403 37.9003 58.4697C37.9003 58.799 38.1673 59.066 38.4966 59.066Z" fill="#161E3C"/>
<path d="M39.8915 59.066C40.2208 59.066 40.4878 58.799 40.4878 58.4697C40.4878 58.1403 40.2208 57.8734 39.8915 57.8734C39.5621 57.8734 39.2952 58.1403 39.2952 58.4697C39.2952 58.799 39.5621 59.066 39.8915 59.066Z" fill="#161E3C"/>
<path d="M41.3351 59.066C41.6644 59.066 41.9314 58.799 41.9314 58.4697C41.9314 58.1403 41.6644 57.8734 41.3351 57.8734C41.0057 57.8734 40.7388 58.1403 40.7388 58.4697C40.7388 58.799 41.0057 59.066 41.3351 59.066Z" fill="#161E3C"/>
<path d="M39.1944 57.8015C39.5237 57.8015 39.7907 57.5345 39.7907 57.2052C39.7907 56.8758 39.5237 56.6089 39.1944 56.6089C38.8651 56.6089 38.5981 56.8758 38.5981 57.2052C38.5981 57.5345 38.8651 57.8015 39.1944 57.8015Z" fill="#161E3C"/>
<path d="M40.638 57.8015C40.9673 57.8015 41.2343 57.5345 41.2343 57.2052C41.2343 56.8758 40.9673 56.6089 40.638 56.6089C40.3087 56.6089 40.0417 56.8758 40.0417 57.2052C40.0417 57.5345 40.3087 57.8015 40.638 57.8015Z" fill="#161E3C"/>
<path d="M38.7996 53.9546C38.6084 54.4855 38.7316 55.1171 39.1077 55.5382C39.2329 55.6781 39.3818 55.7949 39.5333 55.9066C39.5635 55.9291 39.5943 55.9509 39.6251 55.9727C39.5699 55.8777 39.5218 55.7789 39.4858 55.6749C39.3273 55.2101 39.4383 54.6838 39.6874 54.2608C39.7792 54.1055 39.8928 53.9251 39.8228 53.7588C39.9011 53.9495 39.887 54.1664 39.844 54.368C39.801 54.5695 39.731 54.766 39.7002 54.9701C39.6533 55.2782 39.7066 55.5998 39.8382 55.8809C39.9172 56.0497 40.0494 56.1768 40.1527 56.3174C40.1816 56.3341 40.2105 56.3514 40.24 56.3675C40.2439 56.3694 40.2477 56.372 40.2516 56.3739C40.1072 56.1261 40.1386 55.8116 40.2137 55.533C40.2895 55.2519 40.4031 54.9816 40.5481 54.73C40.5693 54.6876 40.5911 54.6453 40.613 54.6036C40.8697 54.1177 41.1066 53.59 41.0668 53.0418C41.0533 52.8595 41.0097 52.6811 40.9532 52.5072C40.7587 51.9128 40.4089 51.3704 39.948 50.948C39.9127 50.9159 39.8754 50.8909 39.8363 50.869C40.154 51.8839 39.3825 52.8031 38.9434 53.6221C38.8946 53.7319 38.8407 53.8404 38.7996 53.9546Z" fill="#161E3C"/>
<path d="M58.0082 44.481C54.3719 40.663 52.3448 35.4445 52.3409 35.431V35.4304V35.431C52.3364 35.4445 50.3145 40.6476 46.6865 44.4662L46.3784 43.963L46.243 44.076L46.6429 44.5131C46.641 44.515 46.639 44.5169 46.6371 44.5189C46.6371 44.5189 46.641 44.5182 46.6461 44.5169L46.648 44.5189L46.666 44.5124C46.9157 44.4579 48.8048 44.0734 50.846 44.5022C50.846 44.5022 52.0623 42.3551 52.3409 40.4108C52.6201 42.3557 53.8359 44.5022 53.8359 44.5022C55.82 44.0849 57.6615 44.4367 57.9921 44.5073L57.9883 44.5137L58.039 44.5176C58.0422 44.5182 58.0448 44.5189 58.0448 44.5189L58.0441 44.5182L58.0563 44.5189L58.462 44.0753L58.3265 43.9624L58.0082 44.481Z" fill="#161E3C"/>
<path d="M30.6117 0C13.705 0 0 13.7056 0 30.6117C0 31.839 0.080236 33.047 0.22081 34.2371C0.704794 34.1318 1.18749 34.0227 1.6702 33.9142C1.58739 33.8295 1.51036 33.7268 1.52192 33.6106C1.97894 33.5156 2.42185 33.35 2.82945 33.1215C2.9007 33.0817 2.98093 32.9963 2.92958 32.9328C2.91097 32.9096 2.88016 32.9007 2.85127 32.8917C2.57012 32.8063 2.31786 32.6285 2.14327 32.3923C2.1285 32.3724 2.1131 32.3493 2.11695 32.3242C2.12273 32.28 2.17857 32.2652 2.22286 32.2581C2.64202 32.1927 2.98928 31.9089 3.31471 31.6368C3.36992 31.5906 3.43025 31.5135 3.38789 31.4551C3.09647 31.4397 2.81789 31.2651 2.67604 31.0097C3.13178 30.8274 3.49637 30.4313 3.64015 29.9621C3.49316 29.9364 3.35451 29.8639 3.24988 29.758C3.78843 29.5173 4.17035 28.6886 4.17035 28.6886C4.17035 28.6886 4.61069 29.5192 5.09082 29.758C4.98619 29.8652 4.84755 29.9377 4.70055 29.9634C4.84434 30.4326 5.20893 30.8286 5.66467 31.0109C5.52281 31.2664 5.24423 31.4404 4.95282 31.4564C4.91045 31.5148 4.97079 31.5919 5.02599 31.6381C5.35079 31.9109 5.69869 32.1939 6.11784 32.2594C6.16213 32.2665 6.21798 32.2812 6.22376 32.3255C6.22697 32.3506 6.2122 32.3737 6.19744 32.3936C6.0222 32.6298 5.77058 32.8069 5.48944 32.893C5.46055 32.9019 5.42974 32.9109 5.41112 32.934C5.36812 32.9873 5.41818 33.0547 5.47788 33.099C6.33416 32.9071 7.1776 32.6632 7.93632 32.2305C8.58077 31.8634 9.16553 31.3621 9.88124 31.1676C10.8736 30.898 11.9308 31.2664 12.952 31.1496C15.9323 30.8081 19.1553 26.1698 20.6419 26.9664C20.9679 27.3002 21.0739 27.831 20.9018 28.2643L21.285 28.3015C21.6297 28.3349 22.0438 28.8311 21.9654 29.1687L21.7902 29.9306C22.5502 29.9409 22.5547 30.8383 23.1048 31.3621C23.4386 31.6804 23.9123 31.7883 24.352 31.9263C25.0472 32.1439 25.7032 32.4738 26.304 32.8853C26.6281 32.71 26.9279 32.4751 27.2116 32.2363C27.2906 32.1702 27.3772 32.0598 27.3162 31.9763C26.899 31.9539 26.5004 31.7048 26.2976 31.3396C26.9497 31.079 27.4716 30.5122 27.677 29.8408C27.4664 29.8042 27.2687 29.7002 27.1185 29.5481C27.8888 29.2034 28.4357 28.0178 28.4357 28.0178C28.4357 28.0178 29.066 29.2066 29.7528 29.5481C29.6026 29.7002 29.4049 29.8035 29.1944 29.8408C29.3998 30.5122 29.9223 31.079 30.5738 31.3396C30.371 31.7048 29.9724 31.9539 29.5551 31.9763C29.4942 32.0598 29.5808 32.1702 29.6598 32.2363C29.9666 32.4937 30.2914 32.7498 30.6464 32.9263C31.8178 32.6805 32.952 32.2562 33.997 31.6714C34.1806 31.5687 34.3866 31.3492 34.2544 31.1855C34.2063 31.1258 34.1267 31.1021 34.0529 31.0796C33.3294 30.8595 32.6799 30.4018 32.2293 29.7939C32.1907 29.7419 32.1522 29.6822 32.1606 29.6187C32.176 29.5044 32.3198 29.4666 32.4334 29.4492C33.513 29.2798 34.4078 28.5506 35.2448 27.8484C35.3873 27.729 35.5427 27.5313 35.4336 27.3804C34.6825 27.34 33.9656 26.8919 33.6003 26.234C34.7737 25.7648 35.7134 24.7448 36.0831 23.5361C35.7044 23.47 35.3482 23.2832 35.078 23.0098C36.4644 22.3891 37.4491 20.2555 37.4491 20.2555C37.4491 20.2555 38.5833 22.3955 39.8202 23.0098C39.55 23.2832 39.1937 23.47 38.815 23.5361C39.1854 24.7448 40.1245 25.7648 41.2979 26.234C40.9326 26.8919 40.2163 27.34 39.4646 27.3804C39.3555 27.5313 39.5108 27.729 39.6533 27.8484C40.4904 28.5506 41.3852 29.2798 42.4648 29.4492C42.5791 29.4672 42.7222 29.5044 42.7376 29.6187C42.7466 29.6822 42.7074 29.7426 42.6689 29.7939C42.2183 30.4011 41.5694 30.8588 40.846 31.0796C40.7721 31.1021 40.6926 31.1252 40.6444 31.1855C40.5122 31.3492 40.7182 31.5687 40.9018 31.6714C41.1444 31.8069 41.3929 31.9321 41.6438 32.0502C43.1568 31.5694 44.6338 30.9955 46.0466 30.2901C45.1518 29.8761 44.3244 29.3176 43.6215 28.6263C43.3384 28.3477 43.0566 27.9986 43.0964 27.6038C44.549 27.3015 45.9541 26.7758 47.2488 26.0511C47.4748 25.9246 47.7289 25.6537 47.5665 25.4515C47.5068 25.3777 47.4086 25.3488 47.3181 25.3212C46.4259 25.0497 45.6248 24.4849 45.0696 23.7358C45.0221 23.6722 44.9746 23.5984 44.9849 23.5195C45.0041 23.3782 45.1806 23.332 45.3219 23.3102C46.6531 23.1016 47.7572 22.2017 48.7893 21.3357C48.9652 21.1881 49.1565 20.9448 49.0217 20.7587C48.0955 20.7086 47.2109 20.156 46.761 19.3446C48.2084 18.7663 49.367 17.5075 49.8234 16.0171C49.3568 15.9355 48.9164 15.7051 48.5833 15.3681C50.2933 14.603 51.5077 11.9712 51.5077 11.9712C51.5077 11.9712 52.9064 14.6107 54.4322 15.3681C54.099 15.7057 53.6594 15.9355 53.1927 16.0171C53.6491 17.5075 54.8077 18.7663 56.2552 19.3446C55.8046 20.156 54.9207 20.7086 53.9944 20.7587C53.8596 20.9448 54.0509 21.1881 54.2268 21.3357C55.2596 22.2017 56.363 23.1009 57.6943 23.3102C57.8348 23.332 58.012 23.3782 58.0313 23.5195C58.0422 23.5984 57.994 23.6722 57.9465 23.7358C57.3907 24.4849 56.5902 25.0497 55.698 25.3212C55.6068 25.3488 55.5093 25.3777 55.4496 25.4515C55.2865 25.6531 55.5407 25.924 55.7673 26.0511C56.8495 26.657 58.012 27.1147 59.2117 27.4279C59.8196 27.3265 60.4197 27.1776 61 26.9703C59.1989 11.7819 46.2847 0 30.6117 0ZM15.6807 25.1344C15.1126 25.3039 14.5125 25.3976 13.8892 25.3976C10.4294 25.3976 7.625 22.5932 7.625 19.1334C7.625 15.6736 10.4294 12.8692 13.8892 12.8692C14.5125 12.8692 15.1126 12.9629 15.6807 13.1324C13.0945 13.9033 11.208 16.2969 11.208 19.1334C11.208 21.9699 13.0945 24.3635 15.6807 25.1344ZM28.9582 15.94L29.0814 16.6596L28.4357 16.32L27.7899 16.6596L27.9132 15.94L27.3907 15.4304L28.1128 15.3251L28.4357 14.6704L28.7586 15.3251L29.4807 15.4304L28.9582 15.94ZM28.5628 5.61589L28.8183 7.10443L27.4818 6.40156L26.1454 7.10443L26.4009 5.61589L25.3193 4.56191L26.8136 4.34495L27.4818 2.99056L28.15 4.34495L29.6444 4.56191L28.5628 5.61589ZM37.9074 16.6936L36.9202 16.175L35.9329 16.6936L36.1217 15.5947L35.3232 14.8161L36.4266 14.6556L36.9202 13.6555L37.4138 14.6556L38.5172 14.8161L37.7187 15.5947L37.9074 16.6936ZM44.6614 8.75986L44.7846 9.47942L44.1389 9.13986L43.4931 9.47942L43.6164 8.75986L43.0939 8.2502L43.816 8.14493L44.1389 7.49085L44.4617 8.14493L45.1839 8.2502L44.6614 8.75986Z" fill="#161E3C"/>
</svg>
